<?xml version="1.0" encoding="UTF-8"?>
<!DOCTYPE svg PUBLIC "-//W3C//DTD SVG 1.1//EN" "http://www.w3.org/Graphics/SVG/1.1/DTD/svg11.dtd">
<svg xmlns="http://www.w3.org/2000/svg" version="1.1" width="100px" height="100px" style="shape-rendering:geometricPrecision; text-rendering:geometricPrecision; image-rendering:optimizeQuality; fill-rule:evenodd; clip-rule:evenodd" xmlns:xlink="http://www.w3.org/1999/xlink">
<g><path style="opacity:1" fill="#2b2827" d="M 75.5,64.5 C 74.5084,64.3284 73.8417,64.6618 73.5,65.5C 72.5084,65.3284 71.8417,65.6618 71.5,66.5C 69.4131,67.5846 68.0798,69.2512 67.5,71.5C 66.8333,71.5 66.5,71.8333 66.5,72.5C 65.8333,72.5 65.5,72.8333 65.5,73.5C 64.8333,73.5 64.5,73.8333 64.5,74.5C 63.8333,74.5 63.5,74.8333 63.5,75.5C 62.5084,75.3284 61.8417,75.6618 61.5,76.5C 60.5,76.5 59.5,76.5 58.5,76.5C 58.5,77.5 58.5,78.5 58.5,79.5C 57.8333,79.5 57.5,79.8333 57.5,80.5C 56.8333,80.5 56.5,80.8333 56.5,81.5C 55.1429,82.5903 54.1429,83.9236 53.5,85.5C 51.3926,84.5318 49.0593,84.1984 46.5,84.5C 46.838,81.8431 46.1713,79.5098 44.5,77.5C 43.8933,77.6236 43.56,77.9569 43.5,78.5C 42.5,78.8333 41.8333,79.5 41.5,80.5C 40.5084,80.3284 39.8417,80.6618 39.5,81.5C 37.5,81.5 35.5,81.5 33.5,81.5C 32.791,80.596 31.791,80.2627 30.5,80.5C 29.713,78.8958 28.3797,78.2291 26.5,78.5C 23.5149,77.8179 20.5149,76.8179 17.5,75.5C 15.585,73.9288 14.585,71.9288 14.5,69.5C 16.1992,69.6602 17.8659,69.4935 19.5,69C 15.1231,67.7945 12.7898,64.9612 12.5,60.5C 14.8056,60.0074 17.139,59.6741 19.5,59.5C 18.4706,52.5545 20.1373,46.3879 24.5,41C 14.2183,32.4461 11.7183,21.9461 17,9.5C 18.25,6.08383 20.4167,3.41716 23.5,1.5C 27.5542,12.1589 30.0542,23.1589 31,34.5C 36.8302,30.2798 43.3302,28.6132 50.5,29.5C 49.305,25.24 48.305,20.9066 47.5,16.5C 48.2188,11.0107 49.5522,5.67735 51.5,0.5C 56.7109,4.55614 60.2109,9.88948 62,16.5C 63.409,22.3163 62.2424,27.483 58.5,32C 63.6922,35.0254 67.6922,39.1921 70.5,44.5C 71.9759,42.4287 73.9759,41.4287 76.5,41.5C 76.5036,45.254 76.337,48.9206 76,52.5C 78.6504,49.5361 80.4838,49.8694 81.5,53.5C 80.9778,58.146 78.9778,61.8126 75.5,64.5 Z M 55.5,16.5 C 56.647,20.6463 56.8136,24.9796 56,29.5C 55.1072,30.7112 54.2739,30.7112 53.5,29.5C 55.0653,25.3132 55.7319,20.9798 55.5,16.5 Z M 25.5,36.5 C 23.1119,35.7813 21.6119,34.1146 21,31.5C 19.5951,27.9279 19.2617,24.2613 20,20.5C 20.1549,26.4664 21.9883,31.7997 25.5,36.5 Z M 43.5,78.5 C 43.5,79.8333 42.8333,80.5 41.5,80.5C 41.8333,79.5 42.5,78.8333 43.5,78.5 Z"/></g>
<g><path style="opacity:1" fill="#e82221" d="M 51.5,40.5 C 56.1487,40.5802 58.982,42.9136 60,47.5C 61.0909,53.0969 60.4242,58.4302 58,63.5C 55.5245,65.8155 53.1911,65.4822 51,62.5C 48.586,56.3877 47.9193,50.0544 49,43.5C 49.6979,42.3094 50.5313,41.3094 51.5,40.5 Z"/></g>
<g><path style="opacity:1" fill="#e82221" d="M 34.5,43.5 C 36.4672,43.2606 38.3005,43.5939 40,44.5C 44.0103,50.2782 45.3437,56.6116 44,63.5C 42.2526,67.4211 39.4192,68.4211 35.5,66.5C 29.241,59.0702 28.9076,51.4035 34.5,43.5 Z"/></g>
<g><path style="opacity:1" fill="#2b2827" d="M 94.5,99.5 C 64.5,99.5 34.5,99.5 4.5,99.5C 5.42892,94.9755 7.42892,90.9755 10.5,87.5C 8.12617,84.9717 7.12617,81.9717 7.5,78.5C 13.917,77.8833 20.2503,77.8833 26.5,78.5C 27.5137,79.6737 28.847,80.3404 30.5,80.5C 31.209,81.404 32.209,81.7373 33.5,81.5C 35.5,82.8333 37.5,82.8333 39.5,81.5C 40.4916,81.6716 41.1583,81.3382 41.5,80.5C 42.8333,80.5 43.5,79.8333 43.5,78.5C 44.4808,81.0436 44.6475,83.7103 44,86.5C 47.0567,85.5495 50.2234,85.2161 53.5,85.5C 53.9731,86.9063 54.9731,87.573 56.5,87.5C 55.3586,85.5487 55.3586,83.5487 56.5,81.5C 57.1667,81.5 57.5,81.1667 57.5,80.5C 58.1667,80.5 58.5,80.1667 58.5,79.5C 59.766,78.9101 61.0993,78.4101 62.5,78C 61.944,77.6174 61.6107,77.1174 61.5,76.5C 62.4916,76.6716 63.1583,76.3382 63.5,75.5C 64.1667,75.5 64.5,75.1667 64.5,74.5C 65.1667,74.5 65.5,74.1667 65.5,73.5C 66.1667,73.5 66.5,73.1667 66.5,72.5C 67.1667,72.5 67.5,72.1667 67.5,71.5C 69.5869,70.4154 70.9202,68.7488 71.5,66.5C 72.4916,66.6716 73.1583,66.3382 73.5,65.5C 74.4916,65.6716 75.1583,65.3382 75.5,64.5C 76.4959,64.4142 77.3292,64.7476 78,65.5C 78.3333,64.8333 78.6667,64.1667 79,63.5C 80.3129,64.5728 81.8129,65.2395 83.5,65.5C 86.1298,64.6221 88.7965,63.9555 91.5,63.5C 92.2309,67.6034 91.2309,71.1034 88.5,74C 94.5073,79.871 95.8406,86.7044 92.5,94.5C 92.9024,96.3002 93.5691,97.9668 94.5,99.5 Z M 43.5,78.5 C 43.56,77.9569 43.8933,77.6236 44.5,77.5C 46.1713,79.5098 46.838,81.8431 46.5,84.5C 49.0593,84.1984 51.3926,84.5318 53.5,85.5C 50.2234,85.2161 47.0567,85.5495 44,86.5C 44.6475,83.7103 44.4808,81.0436 43.5,78.5 Z M 26.5,78.5 C 28.3797,78.2291 29.713,78.8958 30.5,80.5C 28.847,80.3404 27.5137,79.6737 26.5,78.5 Z M 43.5,78.5 C 43.5,79.8333 42.8333,80.5 41.5,80.5C 41.8333,79.5 42.5,78.8333 43.5,78.5 Z M 56.5,81.5 C 55.3586,83.5487 55.3586,85.5487 56.5,87.5C 54.9731,87.573 53.9731,86.9063 53.5,85.5C 54.1429,83.9236 55.1429,82.5903 56.5,81.5 Z"/></g>
</svg>
