{"asset":{"version":"2.0","generator":"Blockbench 4.9.4 glTF exporter"},"scenes":[{"nodes":[9],"name":"blockbench_export"}],"scene":0,"nodes":[{"rotation":[0.7071067811865475,0,0,0.7071067811865476],"name":"torus","mesh":0},{"name":"candleholder","mesh":1},{"name":"candle","mesh":2},{"name":"flame","mesh":3},{"rotation":[0,0.7071067811865475,0,0.7071067811865476],"translation":[-0.005859375,0.482421875,-0.001953125],"name":"flame","mesh":4},{"name":"flame","children":[3,4]},{"name":"candle","children":[2,5]},{"name":"Candleholder","children":[0,1,6]},{"name":"candleAsset","children":[7]},{"children":[8]}],"bufferViews":[{"buffer":0,"byteOffset":0,"byteLength":1728,"target":34962,"byteStride":12},{"buffer":0,"byteOffset":1728,"byteLength":1728,"target":34962,"byteStride":12},{"buffer":0,"byteOffset":3456,"byteLength":1152,"target":34962,"byteStride":8},{"buffer":0,"byteOffset":4608,"byteLength":432,"target":34963},{"buffer":0,"byteOffset":5040,"byteLength":6600,"target":34962,"byteStride":12},{"buffer":0,"byteOffset":11640,"byteLength":6600,"target":34962,"byteStride":12},{"buffer":0,"byteOffset":18240,"byteLength":4400,"target":34962,"byteStride":8},{"buffer":0,"byteOffset":22640,"byteLength":1596,"target":34963},{"buffer":0,"byteOffset":24236,"byteLength":2880,"target":34962,"byteStride":12},{"buffer":0,"byteOffset":27116,"byteLength":2880,"target":34962,"byteStride":12},{"buffer":0,"byteOffset":29996,"byteLength":1920,"target":34962,"byteStride":8},{"buffer":0,"byteOffset":31916,"byteLength":672,"target":34963},{"buffer":0,"byteOffset":32588,"byteLength":288,"target":34962,"byteStride":12},{"buffer":0,"byteOffset":32876,"byteLength":288,"target":34962,"byteStride":12},{"buffer":0,"byteOffset":33164,"byteLength":192,"target":34962,"byteStride":8},{"buffer":0,"byteOffset":33356,"byteLength":72,"target":34963},{"buffer":0,"byteOffset":33428,"byteLength":288,"target":34962,"byteStride":12},{"buffer":0,"byteOffset":33716,"byteLength":288,"target":34962,"byteStride":12},{"buffer":0,"byteOffset":34004,"byteLength":192,"target":34962,"byteStride":8},{"buffer":0,"byteOffset":34196,"byteLength":72,"target":34963}],"buffers":[{"byteLength":34268,"uri":"data:application/octet-stream;base64,"}],"accessors":[{"bufferView":0,"componentType":5126,"count":144,"max":[-0.197265625,0.009765625,-0.01513671875],"min":[-0.302734375,-0.009765625,-0.12060546875],"type":"VEC3"},{"bufferView":1,"componentType":5126,"count":144,"max":[0.8944271802902222,0.9864158630371094,1],"min":[-0.8944271802902222,-0.9864158630371094,-1],"type":"VEC3"},{"bufferView":2,"componentType":5126,"count":144,"max":[0.015182812698185444,0.004510939121246338],"min":[0,0],"type":"VEC2"},{"bufferView":3,"componentType":5123,"count":216,"max":[143],"min":[0],"type":"SCALAR"},{"bufferView":4,"componentType":5126,"count":550,"max":[0.21875,0.23632822930812836,0.21875],"min":[-0.24609375,0,-0.21875],"type":"VEC3"},{"bufferView":5,"componentType":5126,"count":550,"max":[1,1,1],"min":[-1,-1,-1],"type":"VEC3"},{"bufferView":6,"componentType":5126,"count":550,"max":[0.016845703125,0.02254021167755127],"min":[0,0],"type":"VEC2"},{"bufferView":7,"componentType":5123,"count":798,"max":[549],"min":[0],"type":"SCALAR"},{"bufferView":8,"componentType":5126,"count":240,"max":[0.05984770134091377,0.39921876788139343,0.06028201803565025],"min":[-0.07033804804086685,0.19757813215255737,-0.06017714738845825],"type":"VEC3"},{"bufferView":9,"componentType":5126,"count":240,"max":[0.9782000184059143,1,0.9679729342460632],"min":[-0.9766308665275574,-1,-0.9636226892471313],"type":"VEC3"},{"bufferView":10,"componentType":5126,"count":240,"max":[0.009388132952153683,0.01666778326034546],"min":[0,0],"type":"VEC2"},{"bufferView":11,"componentType":5123,"count":336,"max":[239],"min":[0],"type":"SCALAR"},{"bufferView":12,"componentType":5126,"count":24,"max":[0.056640625,0.576171875,-0.0018906249897554517],"min":[-0.068359375,0.388671875,-0.001953125],"type":"VEC3"},{"bufferView":13,"componentType":5126,"count":24,"max":[1,1,1],"min":[-1,-1,-1],"type":"VEC3"},{"bufferView":14,"componentType":5126,"count":24,"max":[0.0001220703125,0.0001220703125],"min":[0,0],"type":"VEC2"},{"bufferView":15,"componentType":5123,"count":36,"max":[23],"min":[0],"type":"SCALAR"},{"bufferView":16,"componentType":5126,"count":24,"max":[0.0625,0.09375,0.0000625000029685907],"min":[-0.0625,-0.09375,0],"type":"VEC3"},{"bufferView":17,"componentType":5126,"count":24,"max":[1,1,1],"min":[-1,-1,-1],"type":"VEC3"},{"bufferView":18,"componentType":5126,"count":24,"max":[0.0001220703125,0.0001220703125],"min":[0,0],"type":"VEC2"},{"bufferView":19,"componentType":5123,"count":36,"max":[23],"min":[0],"type":"SCALAR"}],"materials":[{"pbrMetallicRoughness":{"metallicFactor":0,"roughnessFactor":1},"alphaMode":"MASK","alphaCutoff":0.05},{"pbrMetallicRoughness":{"metallicFactor":0,"roughnessFactor":1},"alphaMode":"MASK","alphaCutoff":0.05},{"pbrMetallicRoughness":{"metallicFactor":0,"roughnessFactor":1},"alphaMode":"MASK","alphaCutoff":0.05}],"meshes":[{"primitives":[{"mode":4,"attributes":{"POSITION":0,"NORMAL":1,"TEXCOORD_0":2},"indices":3,"material":0}]},{"primitives":[{"mode":4,"attributes":{"POSITION":4,"NORMAL":5,"TEXCOORD_0":6},"indices":7,"material":0}]},{"primitives":[{"mode":4,"attributes":{"POSITION":8,"NORMAL":9,"TEXCOORD_0":10},"indices":11,"material":1}]},{"primitives":[{"mode":4,"attributes":{"POSITION":12,"NORMAL":13,"TEXCOORD_0":14},"indices":15,"material":2}]},{"primitives":[{"mode":4,"attributes":{"POSITION":16,"NORMAL":17,"TEXCOORD_0":18},"indices":19,"material":2}]}]}